<svg width="300" height="300" viewBox="0 0 300 300" fill="none" xmlns="http://www.w3.org/2000/svg">
<path d="M133 0C144.7 0 156.3 0 168 0C168.3 2.6 170.5 1.69999 171.8 1.89999C181.2 3.39999 190.5 5.30001 199.4 8.70001C253 29 285.8 67.2 297.7 123.3C298 124.9 297 127.5 300 128C300 142.7 300 157.3 300 172C297.7 172.1 298.3 174.1 298 175.3C285.2 240.5 240.3 285.3 175.3 298C174 298.2 172.1 297.6 172 300C157.3 300 142.7 300 128 300C127.5 297.1 124.9 298.1 123.3 297.8C59.1 285.2 11.9 236.2 2 171.8C1.8 170.4 2.7 168.2 0 168C0 156.3 0 144.7 0 133C2.5 132.6 1.7 130.5 1.9 129.1C11.8 62.6 62.6 11.8 129.1 1.89999C130.5 1.69999 132.6 2.5 133 0ZM164.4 195.5C164.3 182.2 164.4 168.9 164.2 155.5C164.1 151.7 165.3 150.5 169 150.8C174.3 151.1 179.7 150.8 185 150.9C187.7 151 188.9 150 189.1 147.2C189.7 139.2 190.4 131.3 191.4 123.3C191.8 119.7 190.3 119 187.2 119.1C180.7 119.3 174.2 119.1 167.7 119.2C165 119.3 163.7 118.6 163.8 115.6C164 111.1 163.8 106.6 164 102.1C164.4 95.5 167.7 92.2 174.5 91.9C178.8 91.7 183.2 91.6 187.5 91.9C191.2 92.2 192.1 90.8 192 87.4C191.8 80.1 191.8 72.7 192 65.4C192.1 62.1 190.9 61 187.7 61.1C178.5 61.4 169.4 61.1 160.2 61.6C140.1 62.5 127.4 75.6 126.9 95.9C126.7 102.4 126.7 108.9 126.9 115.4C127 118.6 125.8 120 122.5 119.8C119 119.6 115.5 119.8 112 119.6C108.9 119.5 107.9 120.7 108.1 123.8C108.3 128.8 108.2 133.8 108.2 138.8C108.2 150.9 108.2 150.9 120.3 150.6C126.7 150.4 126.7 150.4 126.7 156.8C126.7 182.8 126.7 208.8 126.5 234.7C126.5 239.4 127.9 240.7 132.6 240.5C141.4 240.1 150.2 240.3 159.1 240.5C162.9 240.6 164.5 239.5 164.5 235.5C164.3 222.1 164.4 208.8 164.4 195.5Z" fill="#295395"/>
</svg>
