<svg width="49" height="49" viewBox="0 0 49 49" fill="none" xmlns="http://www.w3.org/2000/svg">
<path d="M24.0391 0.344727C10.7952 0.344727 0.0390625 11.1008 0.0390625 24.3447C0.0390625 37.5886 10.7952 48.3447 24.0391 48.3447C37.283 48.3447 48.0391 37.5886 48.0391 24.3447C48.0391 11.1008 37.283 0.344727 24.0391 0.344727ZM24.4049 10.3325C29.2342 10.3325 33.0756 14.2472 33.0391 19.113C33.0025 23.9423 29.1244 27.7838 24.2586 27.7472C19.4293 27.7106 15.6244 23.7959 15.6976 18.8935C15.7342 14.1374 19.6122 10.2959 24.4049 10.3325ZM39.4049 37.8813C31.9781 47.0276 16.8683 47.0642 9.36833 37.9545C9.00248 37.5155 8.85614 36.5642 9.03906 36.0154C10.1732 32.5398 13.4659 30.235 17.3074 30.1252C19.6488 30.052 21.9903 30.1252 24.3317 30.1252C26.6732 30.1252 29.0147 30.0886 31.3561 30.1252C35.2708 30.1984 38.6366 32.5764 39.7342 36.0886C39.9171 36.5642 39.7708 37.4423 39.4049 37.8813Z" fill="#62177C"/>
</svg>
