<svg width="25" height="25" viewBox="0 0 25 25" fill="none" xmlns="http://www.w3.org/2000/svg">
<path d="M20.7476 24.9952C12.0806 24.7889 4.48033 18.677 2.41922 10.2441C2.04822 8.71231 1.84211 7.15468 1.85242 5.57643C1.85757 5.00392 2.04822 4.48815 2.47075 4.07038C2.92419 3.62166 3.38794 3.18841 3.81562 2.71906C4.66583 1.79584 6.1189 1.53279 7.37618 2.30645C8.10272 2.75517 8.60253 3.38956 8.8241 4.23543C9.06628 5.18444 9.35484 6.11799 9.58671 7.067C9.83404 8.07275 9.58156 8.97535 8.88078 9.73869C8.59223 10.0533 8.27791 10.3525 7.96874 10.6516C7.85538 10.7599 7.82447 10.8579 7.87599 11.0126C9.15903 15.0563 11.823 17.7073 15.8576 18.9864C15.9967 19.0277 16.0946 19.0122 16.1977 18.8988C16.4863 18.5945 16.7851 18.2953 17.0891 18.0065C17.8672 17.2689 18.7895 17.0265 19.8201 17.2792C20.8094 17.5217 21.7936 17.795 22.7726 18.0838C24.4009 18.5687 25.5963 20.5441 24.6843 22.3132C24.5709 22.5298 24.4164 22.7361 24.2463 22.9114C23.7774 23.4014 23.2827 23.8708 22.8138 24.3556C22.381 24.8043 21.8348 24.9642 21.2371 24.9952C21.0774 25.0055 20.9125 24.9952 20.7476 24.9952Z" fill="#E69FFF"/>
<path d="M0.970248 2.57436L0.970397 2.57422C1.08404 2.46176 1.20061 2.34814 1.31858 2.23315C1.65688 1.90341 2.00675 1.56239 2.33226 1.20524C3.01841 0.46108 4.20615 0.231194 5.2617 0.880482C5.88638 1.26638 6.30114 1.79718 6.488 2.50914C6.59928 2.94511 6.72012 3.37756 6.83912 3.8034C6.85132 3.84704 6.86349 3.89061 6.87564 3.9341C7.00706 4.40486 7.13516 4.8684 7.24895 5.33411L7.24913 5.33484C7.45449 6.16994 7.25379 6.90263 6.66041 7.54899L6.66024 7.54917C6.4143 7.81732 6.14841 8.07416 5.87106 8.34208C5.83756 8.37444 5.80389 8.40696 5.77007 8.43968C5.67844 8.52747 5.5738 8.65455 5.5257 8.83309C5.47693 9.01409 5.50407 9.18087 5.54829 9.31522C6.88104 13.5128 9.6665 16.2838 13.8545 17.6115L13.8544 17.6116L13.8634 17.6142C13.9753 17.6474 14.1305 17.6766 14.3038 17.6357C14.4815 17.5939 14.614 17.4941 14.7115 17.388C14.9931 17.0912 15.2847 16.7993 15.5813 16.5175C16.2361 15.897 16.984 15.7012 17.8489 15.9133L17.849 15.9133C18.8284 16.1533 19.8045 16.4243 20.7784 16.7117C22.1688 17.126 23.1268 18.7966 22.3886 20.231C22.3002 20.3995 22.1758 20.567 22.0353 20.7118L22.033 20.7142C21.8036 20.954 21.5669 21.1896 21.3257 21.4291L21.282 21.4725C21.0562 21.6966 20.8266 21.9246 20.6024 22.1564L20.6019 22.1569C20.2878 22.4826 19.8826 22.6172 19.3592 22.6443L19.3592 22.6442L19.3528 22.6446C19.2661 22.6502 19.1925 22.6485 19.0997 22.6464C19.0432 22.6451 18.9796 22.6437 18.9017 22.6436C10.4633 22.4401 3.06023 16.4857 1.05301 8.27444C0.690422 6.77718 0.490409 5.26073 0.500354 3.72877C0.504569 3.27422 0.651464 2.88956 0.970248 2.57436Z" stroke="#62177C"/>
</svg>
