<svg width="45" height="50" viewBox="0 0 45 50" fill="none" xmlns="http://www.w3.org/2000/svg">
<path d="M42.4523 39.7984L42.4726 39.8262L42.4941 39.8531C42.5317 39.9001 42.5375 39.9314 42.5388 39.9546C42.5406 39.9859 42.5336 40.0391 42.4981 40.1038C42.4291 40.2291 42.2764 40.3554 42.0194 40.3554H21.9147H1.81003C1.72538 40.3554 1.67495 40.3335 1.64074 40.3108C1.60091 40.2845 1.56147 40.2416 1.53365 40.183C1.50572 40.1243 1.49637 40.0639 1.50124 40.0124C1.50552 39.9671 1.52149 39.9144 1.57048 39.8531L1.57838 39.8433L1.58611 39.8333C3.78717 36.9848 6.08529 32.0212 7.63737 23.187C9.55443 12.3627 14.5373 8.57493 17.9153 7.14187L18.5336 6.87955V6.88527L20.3278 6.52644C20.8036 6.43128 21.2031 6.4086 21.4738 6.4086C21.6087 6.4086 21.7098 6.41423 21.7703 6.41888C21.8005 6.4212 21.8203 6.42327 21.829 6.42423C21.8296 6.42429 21.8301 6.42435 21.8306 6.4244L22.0323 6.45322L22.234 6.4244C22.2345 6.42435 22.235 6.42429 22.2356 6.42423C22.2443 6.42327 22.2641 6.4212 22.2943 6.41888C22.3548 6.41423 22.4559 6.4086 22.5908 6.4086C22.8615 6.4086 23.261 6.43128 23.7368 6.52644L24.966 6.77226L26.164 7.26558C29.6354 8.69495 34.5109 12.4688 36.5461 23.3122C38.1012 32.1586 40.3997 36.976 42.4523 39.7984Z" stroke="#62177C" stroke-width="3"/>
<path d="M22.0322 49.1448C24.9715 49.1448 27.3229 47.0285 27.7932 44.3244C27.9108 43.8541 27.4405 43.3838 26.9702 43.3838H17.0942C16.6239 43.3838 16.1536 43.8541 16.2712 44.3244C16.7415 47.0285 19.0929 49.1448 22.0322 49.1448Z" fill="#62177C"/>
</svg>
