<svg width="368" height="306" viewBox="0 0 368 306" fill="none" xmlns="http://www.w3.org/2000/svg">
<path d="M283.547 0C247.97 0 219.134 28.9059 219.047 64.577V117H244.438V64.577C244.526 42.9635 262.008 25.4793 283.547 25.4793C305.086 25.4793 322.568 42.9635 322.655 64.577V117H348.047V64.577C347.959 28.9059 319.124 0 283.547 0Z" fill="#575757"/>
<path d="M199.047 120.899C199.047 116.268 202.226 112.243 206.731 111.171L213.561 109.544C259.246 98.6668 306.847 98.6668 352.533 109.544L359.363 111.171C363.868 112.243 367.047 116.268 367.047 120.899V209.101C367.047 213.732 363.868 217.757 359.363 218.829L352.533 220.456C306.847 231.333 259.246 231.333 213.561 220.456L206.731 218.829C202.226 217.757 199.047 213.732 199.047 209.101V120.899Z" fill="url(#paint0_linear_1205_369)"/>
<circle cx="283.547" cy="150.5" r="17.5" fill="white"/>
<rect x="276.047" y="155" width="14" height="50" rx="7" fill="white"/>
<path d="M235.094 258.278L40.4273 257.18C32.8965 257.129 26.8485 250.991 26.89 243.502L27.508 137.561C27.5601 130.028 33.697 123.978 41.1846 124.018L235.852 125.116C243.382 125.167 249.43 131.305 249.389 138.795L248.771 244.736C248.719 252.268 242.582 258.319 235.094 258.278Z" fill="url(#paint1_linear_1205_369)"/>
<path opacity="0.5" d="M181.827 217.406L27.0651 216.517L27.3989 164.101L182.161 164.99C184.305 165.009 185.985 166.745 185.976 168.846L185.736 213.557C185.717 215.701 183.971 217.425 181.827 217.406Z" fill="#C866EB"/>
<path opacity="0.5" d="M249.039 195.598L107.108 194.771C104.964 194.752 103.284 193.017 103.293 190.915L103.533 146.205C103.552 144.06 105.287 142.379 107.388 142.388L249.329 143.172L249.039 195.598Z" fill="#DC89F9"/>
<path d="M52.8069 221.005C55.19 221.586 57.5927 220.124 58.1734 217.74C58.7541 215.356 57.2929 212.953 54.9098 212.372C52.5266 211.792 50.124 213.254 49.5433 215.638C48.9626 218.021 50.4237 220.424 52.8069 221.005Z" fill="url(#paint2_linear_1205_369)"/>
<path d="M62.7619 221.054C65.1451 221.634 67.5478 220.173 68.1285 217.789C68.7092 215.405 67.248 213.002 64.8649 212.421C62.4817 211.841 60.079 213.303 59.4983 215.686C58.9176 218.07 60.3788 220.473 62.7619 221.054Z" fill="url(#paint3_linear_1205_369)"/>
<path d="M72.6184 221.122C75.0015 221.703 77.4042 220.241 77.9849 217.857C78.5656 215.473 77.1045 213.07 74.7213 212.49C72.3382 211.909 69.9355 213.371 69.3548 215.755C68.7741 218.139 70.2352 220.542 72.6184 221.122Z" fill="url(#paint4_linear_1205_369)"/>
<path d="M82.4768 221.192C84.8599 221.772 87.2626 220.31 87.8433 217.926C88.424 215.543 86.9628 213.14 84.5797 212.559C82.1966 211.978 79.7939 213.44 79.2132 215.824C78.6325 218.208 80.0936 220.611 82.4768 221.192Z" fill="url(#paint5_linear_1205_369)"/>
<path d="M100.653 221.276C103.036 221.856 105.438 220.394 106.019 218.01C106.6 215.627 105.139 213.224 102.755 212.643C100.372 212.062 97.9697 213.524 97.389 215.908C96.8083 218.292 98.2694 220.695 100.653 221.276Z" fill="url(#paint6_linear_1205_369)"/>
<path d="M110.649 221.332C113.032 221.913 115.434 220.451 116.015 218.067C116.596 215.683 115.135 213.28 112.752 212.7C110.368 212.119 107.966 213.581 107.385 215.965C106.804 218.349 108.266 220.752 110.649 221.332Z" fill="url(#paint7_linear_1205_369)"/>
<path d="M120.464 221.389C122.847 221.969 125.25 220.507 125.831 218.124C126.411 215.74 124.95 213.337 122.567 212.756C120.184 212.176 117.781 213.638 117.2 216.021C116.62 218.405 118.081 220.808 120.464 221.389Z" fill="url(#paint8_linear_1205_369)"/>
<path d="M130.365 221.472C132.749 222.052 135.151 220.591 135.732 218.207C136.313 215.823 134.852 213.42 132.468 212.839C130.085 212.259 127.683 213.721 127.102 216.104C126.521 218.488 127.982 220.891 130.365 221.472Z" fill="url(#paint9_linear_1205_369)"/>
<path d="M148.81 221.574C151.193 222.155 153.596 220.693 154.176 218.309C154.757 215.925 153.296 213.522 150.913 212.942C148.53 212.361 146.127 213.823 145.546 216.207C144.965 218.591 146.427 220.994 148.81 221.574Z" fill="url(#paint10_linear_1205_369)"/>
<path d="M158.807 221.631C161.19 222.212 163.593 220.75 164.173 218.366C164.754 215.982 163.293 213.579 160.91 212.998C158.527 212.418 156.124 213.88 155.543 216.264C154.963 218.647 156.424 221.05 158.807 221.631Z" fill="url(#paint11_linear_1205_369)"/>
<path d="M168.633 221.647C171.016 222.227 173.419 220.765 174 218.381C174.58 215.998 173.119 213.595 170.736 213.014C168.353 212.434 165.95 213.895 165.369 216.279C164.789 218.663 166.25 221.066 168.633 221.647Z" fill="url(#paint12_linear_1205_369)"/>
<path d="M178.533 221.727C180.917 222.307 183.319 220.845 183.9 218.462C184.481 216.078 183.019 213.675 180.636 213.094C178.253 212.514 175.851 213.975 175.27 216.359C174.689 218.743 176.15 221.146 178.533 221.727Z" fill="url(#paint13_linear_1205_369)"/>
<path d="M197.98 221.845C200.363 222.425 202.766 220.964 203.346 218.58C203.927 216.196 202.466 213.793 200.083 213.212C197.699 212.632 195.297 214.094 194.716 216.477C194.135 218.861 195.597 221.264 197.98 221.845Z" fill="url(#paint14_linear_1205_369)"/>
<path d="M207.979 221.902C210.362 222.483 212.765 221.021 213.345 218.637C213.926 216.254 212.465 213.85 210.082 213.27C207.699 212.689 205.296 214.151 204.715 216.535C204.134 218.919 205.596 221.322 207.979 221.902Z" fill="url(#paint15_linear_1205_369)"/>
<path d="M217.835 221.973C220.218 222.553 222.621 221.091 223.202 218.708C223.782 216.324 222.321 213.921 219.938 213.34C217.555 212.76 215.152 214.222 214.572 216.605C213.991 218.989 215.452 221.392 217.835 221.973Z" fill="url(#paint16_linear_1205_369)"/>
<path d="M227.704 221.997C230.087 222.578 232.49 221.116 233.071 218.732C233.652 216.348 232.19 213.945 229.807 213.365C227.424 212.784 225.021 214.246 224.441 216.63C223.86 219.014 225.321 221.417 227.704 221.997Z" fill="url(#paint17_linear_1205_369)"/>
<path d="M52.2092 251.225C54.5924 251.805 56.995 250.343 57.5757 247.96C58.1564 245.576 56.6953 243.173 54.3121 242.592C51.929 242.012 49.5263 243.473 48.9456 245.857C48.3649 248.241 49.8261 250.644 52.2092 251.225Z" fill="url(#paint18_linear_1205_369)"/>
<path d="M62.1653 251.271C64.5484 251.851 66.9511 250.389 67.5318 248.006C68.1125 245.622 66.6513 243.219 64.2682 242.638C61.885 242.058 59.4824 243.519 58.9017 245.903C58.321 248.287 59.7821 250.69 62.1653 251.271Z" fill="url(#paint19_linear_1205_369)"/>
<path d="M72.0217 251.341C74.4048 251.921 76.8075 250.46 77.3882 248.076C77.9689 245.692 76.5078 243.289 74.1246 242.708C71.7415 242.128 69.3388 243.59 68.7581 245.974C68.1774 248.357 69.6386 250.76 72.0217 251.341Z" fill="url(#paint20_linear_1205_369)"/>
<path d="M81.8909 251.368C84.274 251.949 86.6767 250.487 87.2574 248.103C87.8381 245.719 86.3769 243.316 83.9938 242.736C81.6106 242.155 79.208 243.617 78.6272 246.001C78.0465 248.385 79.5077 250.788 81.8909 251.368Z" fill="url(#paint21_linear_1205_369)"/>
<path d="M230.952 251.828L186.759 251.58C185.165 251.557 183.875 250.283 183.898 248.688L184.013 230.013C184.036 228.418 185.31 227.128 186.905 227.15L231.097 227.398C232.692 227.421 233.982 228.695 233.959 230.29L233.844 248.965C233.821 250.56 232.547 251.85 230.952 251.828Z" fill="url(#paint22_linear_1205_369)"/>
<path d="M71.8985 203.251L58.1516 203.195C54.952 203.193 52.3938 200.558 52.3963 197.357L52.4543 183.607C52.4568 180.406 55.0917 177.847 58.2914 177.849L72.0383 177.906C75.2379 177.908 77.7961 180.543 77.7936 183.743L77.7356 197.494C77.6899 200.684 75.0982 203.253 71.8985 203.251Z" fill="url(#paint23_linear_1205_369)"/>
<defs>
<linearGradient id="paint0_linear_1205_369" x1="223.047" y1="78" x2="333.047" y2="249" gradientUnits="userSpaceOnUse">
<stop stop-color="#CC9812"/>
<stop offset="0.523958" stop-color="#F0CB6B"/>
<stop offset="0.981689" stop-color="#CC9812"/>
</linearGradient>
<linearGradient id="paint1_linear_1205_369" x1="21.0365" y1="162.625" x2="255.253" y2="219.681" gradientUnits="userSpaceOnUse">
<stop offset="1.08255e-07" stop-color="#62177C"/>
<stop offset="1" stop-color="#B729E8"/>
</linearGradient>
<linearGradient id="paint2_linear_1205_369" x1="50.7149" y1="213.529" x2="56.9607" y2="219.845" gradientUnits="userSpaceOnUse">
<stop offset="0.2811" stop-color="#EBE6E2"/>
<stop offset="0.4758" stop-color="#E7E3DF"/>
<stop offset="0.649" stop-color="#DDDAD6"/>
<stop offset="0.814" stop-color="#CACAC8"/>
<stop offset="0.9731" stop-color="#B1B4B3"/>
<stop offset="1" stop-color="#ACB0AF"/>
</linearGradient>
<linearGradient id="paint3_linear_1205_369" x1="60.7089" y1="213.587" x2="66.9547" y2="219.904" gradientUnits="userSpaceOnUse">
<stop offset="0.2811" stop-color="#EBE6E2"/>
<stop offset="0.4758" stop-color="#E7E3DF"/>
<stop offset="0.649" stop-color="#DDDAD6"/>
<stop offset="0.814" stop-color="#CACAC8"/>
<stop offset="0.9731" stop-color="#B1B4B3"/>
<stop offset="1" stop-color="#ACB0AF"/>
</linearGradient>
<linearGradient id="paint4_linear_1205_369" x1="70.5345" y1="213.642" x2="76.7804" y2="219.958" gradientUnits="userSpaceOnUse">
<stop offset="0.2811" stop-color="#EBE6E2"/>
<stop offset="0.4758" stop-color="#E7E3DF"/>
<stop offset="0.649" stop-color="#DDDAD6"/>
<stop offset="0.814" stop-color="#CACAC8"/>
<stop offset="0.9731" stop-color="#B1B4B3"/>
<stop offset="1" stop-color="#ACB0AF"/>
</linearGradient>
<linearGradient id="paint5_linear_1205_369" x1="80.4176" y1="213.698" x2="86.6635" y2="220.015" gradientUnits="userSpaceOnUse">
<stop offset="0.2811" stop-color="#EBE6E2"/>
<stop offset="0.4758" stop-color="#E7E3DF"/>
<stop offset="0.649" stop-color="#DDDAD6"/>
<stop offset="0.814" stop-color="#CACAC8"/>
<stop offset="0.9731" stop-color="#B1B4B3"/>
<stop offset="1" stop-color="#ACB0AF"/>
</linearGradient>
<linearGradient id="paint6_linear_1205_369" x1="98.5737" y1="213.802" x2="104.819" y2="220.118" gradientUnits="userSpaceOnUse">
<stop offset="0.2811" stop-color="#EBE6E2"/>
<stop offset="0.4758" stop-color="#E7E3DF"/>
<stop offset="0.649" stop-color="#DDDAD6"/>
<stop offset="0.814" stop-color="#CACAC8"/>
<stop offset="0.9731" stop-color="#B1B4B3"/>
<stop offset="1" stop-color="#ACB0AF"/>
</linearGradient>
<linearGradient id="paint7_linear_1205_369" x1="108.566" y1="213.858" x2="114.811" y2="220.174" gradientUnits="userSpaceOnUse">
<stop offset="0.2811" stop-color="#EBE6E2"/>
<stop offset="0.4758" stop-color="#E7E3DF"/>
<stop offset="0.649" stop-color="#DDDAD6"/>
<stop offset="0.814" stop-color="#CACAC8"/>
<stop offset="0.9731" stop-color="#B1B4B3"/>
<stop offset="1" stop-color="#ACB0AF"/>
</linearGradient>
<linearGradient id="paint8_linear_1205_369" x1="118.393" y1="213.911" x2="124.639" y2="220.228" gradientUnits="userSpaceOnUse">
<stop offset="0.2811" stop-color="#EBE6E2"/>
<stop offset="0.4758" stop-color="#E7E3DF"/>
<stop offset="0.649" stop-color="#DDDAD6"/>
<stop offset="0.814" stop-color="#CACAC8"/>
<stop offset="0.9731" stop-color="#B1B4B3"/>
<stop offset="1" stop-color="#ACB0AF"/>
</linearGradient>
<linearGradient id="paint9_linear_1205_369" x1="128.276" y1="213.971" x2="134.522" y2="220.287" gradientUnits="userSpaceOnUse">
<stop offset="0.2811" stop-color="#EBE6E2"/>
<stop offset="0.4758" stop-color="#E7E3DF"/>
<stop offset="0.649" stop-color="#DDDAD6"/>
<stop offset="0.814" stop-color="#CACAC8"/>
<stop offset="0.9731" stop-color="#B1B4B3"/>
<stop offset="1" stop-color="#ACB0AF"/>
</linearGradient>
<linearGradient id="paint10_linear_1205_369" x1="146.737" y1="214.075" x2="152.983" y2="220.391" gradientUnits="userSpaceOnUse">
<stop offset="0.2811" stop-color="#EBE6E2"/>
<stop offset="0.4758" stop-color="#E7E3DF"/>
<stop offset="0.649" stop-color="#DDDAD6"/>
<stop offset="0.814" stop-color="#CACAC8"/>
<stop offset="0.9731" stop-color="#B1B4B3"/>
<stop offset="1" stop-color="#ACB0AF"/>
</linearGradient>
<linearGradient id="paint11_linear_1205_369" x1="156.73" y1="214.131" x2="162.975" y2="220.447" gradientUnits="userSpaceOnUse">
<stop offset="0.2811" stop-color="#EBE6E2"/>
<stop offset="0.4758" stop-color="#E7E3DF"/>
<stop offset="0.649" stop-color="#DDDAD6"/>
<stop offset="0.814" stop-color="#CACAC8"/>
<stop offset="0.9731" stop-color="#B1B4B3"/>
<stop offset="1" stop-color="#ACB0AF"/>
</linearGradient>
<linearGradient id="paint12_linear_1205_369" x1="166.558" y1="214.186" x2="172.803" y2="220.503" gradientUnits="userSpaceOnUse">
<stop offset="0.2811" stop-color="#EBE6E2"/>
<stop offset="0.4758" stop-color="#E7E3DF"/>
<stop offset="0.649" stop-color="#DDDAD6"/>
<stop offset="0.814" stop-color="#CACAC8"/>
<stop offset="0.9731" stop-color="#B1B4B3"/>
<stop offset="1" stop-color="#ACB0AF"/>
</linearGradient>
<linearGradient id="paint13_linear_1205_369" x1="176.439" y1="214.243" x2="182.685" y2="220.559" gradientUnits="userSpaceOnUse">
<stop offset="0.2811" stop-color="#EBE6E2"/>
<stop offset="0.4758" stop-color="#E7E3DF"/>
<stop offset="0.649" stop-color="#DDDAD6"/>
<stop offset="0.814" stop-color="#CACAC8"/>
<stop offset="0.9731" stop-color="#B1B4B3"/>
<stop offset="1" stop-color="#ACB0AF"/>
</linearGradient>
<linearGradient id="paint14_linear_1205_369" x1="195.927" y1="214.353" x2="202.173" y2="220.669" gradientUnits="userSpaceOnUse">
<stop offset="0.2811" stop-color="#EBE6E2"/>
<stop offset="0.4758" stop-color="#E7E3DF"/>
<stop offset="0.649" stop-color="#DDDAD6"/>
<stop offset="0.814" stop-color="#CACAC8"/>
<stop offset="0.9731" stop-color="#B1B4B3"/>
<stop offset="1" stop-color="#ACB0AF"/>
</linearGradient>
<linearGradient id="paint15_linear_1205_369" x1="205.922" y1="214.41" x2="212.168" y2="220.726" gradientUnits="userSpaceOnUse">
<stop offset="0.2811" stop-color="#EBE6E2"/>
<stop offset="0.4758" stop-color="#E7E3DF"/>
<stop offset="0.649" stop-color="#DDDAD6"/>
<stop offset="0.814" stop-color="#CACAC8"/>
<stop offset="0.9731" stop-color="#B1B4B3"/>
<stop offset="1" stop-color="#ACB0AF"/>
</linearGradient>
<linearGradient id="paint16_linear_1205_369" x1="215.747" y1="214.467" x2="221.993" y2="220.783" gradientUnits="userSpaceOnUse">
<stop offset="0.2811" stop-color="#EBE6E2"/>
<stop offset="0.4758" stop-color="#E7E3DF"/>
<stop offset="0.649" stop-color="#DDDAD6"/>
<stop offset="0.814" stop-color="#CACAC8"/>
<stop offset="0.9731" stop-color="#B1B4B3"/>
<stop offset="1" stop-color="#ACB0AF"/>
</linearGradient>
<linearGradient id="paint17_linear_1205_369" x1="225.631" y1="214.521" x2="231.877" y2="220.837" gradientUnits="userSpaceOnUse">
<stop offset="0.2811" stop-color="#EBE6E2"/>
<stop offset="0.4758" stop-color="#E7E3DF"/>
<stop offset="0.649" stop-color="#DDDAD6"/>
<stop offset="0.814" stop-color="#CACAC8"/>
<stop offset="0.9731" stop-color="#B1B4B3"/>
<stop offset="1" stop-color="#ACB0AF"/>
</linearGradient>
<linearGradient id="paint18_linear_1205_369" x1="50.1212" y1="243.738" x2="56.367" y2="250.055" gradientUnits="userSpaceOnUse">
<stop offset="0.2811" stop-color="#EBE6E2"/>
<stop offset="0.4758" stop-color="#E7E3DF"/>
<stop offset="0.649" stop-color="#DDDAD6"/>
<stop offset="0.814" stop-color="#CACAC8"/>
<stop offset="0.9731" stop-color="#B1B4B3"/>
<stop offset="1" stop-color="#ACB0AF"/>
</linearGradient>
<linearGradient id="paint19_linear_1205_369" x1="60.1161" y1="243.794" x2="66.362" y2="250.11" gradientUnits="userSpaceOnUse">
<stop offset="0.2811" stop-color="#EBE6E2"/>
<stop offset="0.4758" stop-color="#E7E3DF"/>
<stop offset="0.649" stop-color="#DDDAD6"/>
<stop offset="0.814" stop-color="#CACAC8"/>
<stop offset="0.9731" stop-color="#B1B4B3"/>
<stop offset="1" stop-color="#ACB0AF"/>
</linearGradient>
<linearGradient id="paint20_linear_1205_369" x1="69.9418" y1="243.851" x2="76.1876" y2="250.167" gradientUnits="userSpaceOnUse">
<stop offset="0.2811" stop-color="#EBE6E2"/>
<stop offset="0.4758" stop-color="#E7E3DF"/>
<stop offset="0.649" stop-color="#DDDAD6"/>
<stop offset="0.814" stop-color="#CACAC8"/>
<stop offset="0.9731" stop-color="#B1B4B3"/>
<stop offset="1" stop-color="#ACB0AF"/>
</linearGradient>
<linearGradient id="paint21_linear_1205_369" x1="79.8251" y1="243.908" x2="86.0709" y2="250.224" gradientUnits="userSpaceOnUse">
<stop offset="0.2811" stop-color="#EBE6E2"/>
<stop offset="0.4758" stop-color="#E7E3DF"/>
<stop offset="0.649" stop-color="#DDDAD6"/>
<stop offset="0.814" stop-color="#CACAC8"/>
<stop offset="0.9731" stop-color="#B1B4B3"/>
<stop offset="1" stop-color="#ACB0AF"/>
</linearGradient>
<linearGradient id="paint22_linear_1205_369" x1="197.271" y1="220.334" x2="220.58" y2="258.644" gradientUnits="userSpaceOnUse">
<stop stop-color="#CC9812"/>
<stop offset="1" stop-color="#CC9812"/>
</linearGradient>
<linearGradient id="paint23_linear_1205_369" x1="54.1933" y1="179.513" x2="75.9986" y2="201.564" gradientUnits="userSpaceOnUse">
<stop stop-color="#CC9812"/>
<stop offset="1" stop-color="#CC9812"/>
</linearGradient>
</defs>
</svg>
