<svg width="554" height="382" viewBox="0 0 554 382" fill="none" xmlns="http://www.w3.org/2000/svg">
<path d="M496.508 381.148L319.617 354.621C309.047 353.039 301.758 343.182 303.337 332.595L338.569 96.8889C340.149 86.3022 349.99 79.001 360.559 80.583L537.451 107.111C548.02 108.693 555.31 118.549 553.73 129.136L518.498 364.842C516.918 375.429 507.078 382.73 496.508 381.148Z" fill="#E4E4E4"/>
<path d="M427.38 261.348L339.541 248.206C336.686 247.78 334.682 245.103 335.107 242.182L335.289 241.026C335.714 238.167 338.387 236.159 341.303 236.585L429.141 249.727C431.996 250.153 434.001 252.83 433.576 255.751L433.393 256.907C432.968 259.827 430.295 261.774 427.38 261.348Z" fill="#B0BEBE"/>
<path d="M509.507 287.085L334.682 260.861C333.406 260.679 332.555 259.523 332.738 258.245L332.798 257.758C332.981 256.481 334.135 255.629 335.411 255.811L510.297 282.035C511.573 282.217 512.423 283.373 512.241 284.651L512.18 285.138C511.937 286.415 510.783 287.267 509.507 287.085Z" fill="#C9D3D4"/>
<path d="M507.624 299.679L332.738 273.456C331.462 273.273 330.612 272.117 330.794 270.84L330.855 270.353C331.037 269.075 332.191 268.223 333.467 268.406L508.414 294.69C509.69 294.873 510.54 296.029 510.358 297.306L510.297 297.793C510.054 299.01 508.9 299.923 507.624 299.679Z" fill="#C9D3D4"/>
<path d="M486.242 308.38L331.037 285.077C329.761 284.894 328.911 283.738 329.093 282.461L329.154 281.974C329.336 280.696 330.49 279.844 331.766 280.027L486.971 303.269C488.246 303.452 489.097 304.608 488.915 305.885L488.854 306.372C488.672 307.711 487.517 308.562 486.242 308.38Z" fill="#C9D3D4"/>
<path d="M405.936 191.926C406.301 191.865 406.726 191.865 407.09 191.865C417.356 191.804 427.562 193.021 436.005 194.542C444.449 195.942 454.472 198.315 464.13 201.843C464.495 201.965 464.859 202.148 465.224 202.33C466.986 202.878 472.21 205.129 476.158 213.951C483.144 207.867 488.672 199.896 491.891 190.527C501.732 161.869 486.546 130.657 457.934 120.8C429.323 110.944 398.161 126.155 388.32 154.812C383.096 169.962 384.918 185.842 391.965 198.862C398.647 192.169 404.175 191.865 405.936 191.926Z" fill="white"/>
<path d="M465.163 202.391C470.326 204.886 473.121 210.787 471.663 216.446C471.541 216.872 471.42 217.298 471.298 217.724C472.939 216.567 474.579 215.29 476.097 213.951C472.149 205.19 466.925 202.878 465.163 202.391Z" fill="#4C4C4C"/>
<path d="M395.063 202.999C395.61 197.159 400.226 192.534 405.936 191.987C404.175 191.865 398.586 192.169 391.904 198.923C392.815 200.627 393.848 202.269 394.941 203.912C395.002 203.547 395.002 203.243 395.063 202.999Z" fill="#237577"/>
<path d="M464.556 202.208C464.556 202.208 464.799 202.269 465.163 202.33C464.799 202.148 464.434 202.026 464.07 201.843C454.472 198.315 444.449 195.942 435.945 194.542C427.501 192.96 417.296 191.804 407.03 191.865C406.665 191.865 406.24 191.865 405.875 191.926C406.24 191.926 406.483 191.987 406.483 191.987L400.348 197.463L398.95 209.023C405.025 215.898 412.861 221.374 422.155 224.538C437.099 229.71 452.771 228.006 465.71 221.131L468.383 209.449L464.556 202.208Z" fill="#4C4C4C"/>
<path d="M465.163 202.391C464.799 202.269 464.556 202.269 464.556 202.269L468.443 209.51L465.771 221.192C467.654 220.157 469.537 219.062 471.298 217.784C471.42 217.358 471.541 216.933 471.663 216.507C473.121 210.787 470.387 204.886 465.163 202.391Z" fill="#4C4C4C"/>
<path d="M406.544 191.987C406.544 191.987 406.361 191.926 405.936 191.926C400.226 192.534 395.609 197.098 395.063 202.939C395.063 203.243 395.002 203.486 395.002 203.79C396.217 205.616 397.614 207.319 399.072 208.962L400.469 197.402L406.544 191.987Z" fill="#51B5BC"/>
<path d="M449.126 196.489C446.696 188.397 446.514 177.871 446.514 177.871L440.379 176.776L434.244 175.681C434.244 175.681 430.477 185.537 425.436 192.291C425.071 192.778 424.828 193.386 424.767 193.995C424.403 196.915 424.16 205.798 432.664 214.316C433.272 214.925 434.183 215.046 434.912 214.681C445.785 209.51 448.58 201.113 449.248 198.254C449.369 197.706 449.309 197.098 449.126 196.489Z" fill="#EAEAEA"/>
<path d="M436.855 197.767C436.855 197.767 454.775 198.071 459.21 172.882L460.911 163.147L453.561 150.918L445.238 149.457L436.855 197.767Z" fill="#EAEAEA"/>
<path d="M436.795 197.767C436.795 197.767 419.847 191.926 424.281 166.737L425.982 157.002L437.038 147.997L445.36 149.457L436.795 197.767Z" fill="#EAEAEA"/>
<path d="M439.042 136.498C439.832 135.22 441.229 134.612 442.626 134.733C448.822 135.403 467.836 139.357 464.616 161.444C461.944 179.879 457.813 181.157 456.78 178.601C456.294 177.384 456.173 176.107 456.233 174.829C456.476 170.692 456.476 161.139 453.561 159.983C450.28 158.706 444.813 159.253 441.472 163.573C441.351 163.756 441.108 163.573 441.169 163.391C441.958 161.748 444.327 158.584 451.92 156.759C451.92 156.759 432.907 147.936 427.136 168.623C424.038 179.757 421.912 176.472 421.062 172.882C420.515 170.631 421.001 165.277 421.244 163.025C422.034 155.663 425.132 137.228 436.43 144.955C436.491 144.894 436.977 139.844 439.042 136.498Z" fill="#4D4D4D"/>
<path d="M458.238 179.392L456.78 178.419C456.416 179.575 455.201 181.765 454.229 183.59C453.257 185.294 451.678 186.511 449.855 186.815C446.21 187.484 441.412 188.215 438.374 187.667C435.337 187.119 431.085 184.807 427.987 182.921C426.468 182.009 425.435 180.427 425.071 178.601C424.828 177.384 424.646 176.046 424.707 175.072L423.066 176.228L423.431 180.183C423.431 180.183 423.795 198.497 436.309 200.687C448.337 202.817 454.897 187.059 455.383 185.903L458.238 179.392Z" fill="#4D4D4D"/>
<path d="M57.4389 381.148L234.33 354.621C244.9 353.039 252.189 343.182 250.61 332.595L215.377 96.8889C213.798 86.3022 203.957 79.001 193.388 80.583L16.4356 107.111C5.86586 108.693 -1.36287 118.549 0.216514 129.136L35.449 364.842C36.9676 375.429 46.8691 382.73 57.4389 381.148Z" fill="#E4E4E4"/>
<path d="M47.4158 273.152L135.254 260.01C138.109 259.584 140.114 256.906 139.688 253.986L139.506 252.83C139.081 249.97 136.408 247.963 133.492 248.388L45.6542 261.531C42.7991 261.956 40.7945 264.634 41.2198 267.554L41.402 268.71C41.8272 271.57 44.5 273.578 47.4158 273.152Z" fill="#B0BEBE"/>
<path d="M46.2008 286.476L221.087 260.253C222.363 260.07 223.213 258.914 223.031 257.637L222.91 257.15C222.728 255.872 221.573 255.02 220.298 255.203L45.4718 281.426C44.1962 281.609 43.3457 282.765 43.528 284.043L43.5887 284.529C43.8317 285.807 44.9859 286.659 46.2008 286.476Z" fill="#C9D3D4"/>
<path d="M48.0841 299.071L222.971 272.847C224.246 272.665 225.097 271.509 224.915 270.231L224.854 269.744C224.672 268.467 223.517 267.615 222.242 267.797L47.3551 294.082C46.0795 294.264 45.229 295.42 45.4113 296.698L45.472 297.185C45.715 298.402 46.8692 299.314 48.0841 299.071Z" fill="#C9D3D4"/>
<path d="M50.5746 310.083L205.78 286.841C207.055 286.659 207.906 285.503 207.723 284.225L207.663 283.738C207.48 282.461 206.326 281.609 205.051 281.791L49.8456 305.033C48.57 305.216 47.7195 306.372 47.9018 307.65L47.9625 308.136C48.1447 309.414 49.3596 310.266 50.5746 310.083Z" fill="#C9D3D4"/>
<path d="M169.271 171.848C169.271 141.244 144.487 116.359 113.871 116.359C83.2556 116.359 58.4714 141.183 58.4714 171.848C58.4714 191.804 68.9804 209.327 84.7743 219.062C85.9285 216.872 92.732 206.042 116.119 207.198L127.235 207.137C127.235 207.137 138.777 207.319 146.431 216.628C160.281 206.589 169.271 190.283 169.271 171.848Z" fill="white"/>
<path d="M127.296 207.137L116.18 207.198C92.7926 206.042 85.9891 216.811 84.835 219.062C93.2786 224.295 103.241 227.337 113.871 227.337C126.081 227.337 137.38 223.382 146.492 216.689C138.838 207.319 127.296 207.137 127.296 207.137Z" fill="#4C4C4C"/>
<path d="M103.545 197.889V213.16C103.545 213.16 111.624 221.252 126.689 213.16C126.689 213.16 128.693 207.684 127.357 203.547L111.806 196.55L103.545 197.889Z" fill="#EAEAEA"/>
<path d="M136.651 160.044C136.651 160.044 141.572 179.331 132.278 202.817C132.278 202.817 122.801 205.311 108.465 201.661C103.666 200.444 99.6571 197.098 97.531 192.656C96.4376 190.344 95.4656 187.91 95.4656 186.389C95.4656 186.389 90.6667 186.693 90.6667 177.75V172.578L93.7648 166.676L104.699 161.869L119.885 160.774L132.824 158.097L136.651 160.044Z" fill="#EAEAEA"/>
<path d="M94.6759 174.586C94.6759 174.586 94.0684 167.041 98.0776 167.041C102.026 167.041 113.811 162.66 123.712 162.66C130.637 162.66 135.436 161.322 137.745 160.47C138.656 160.105 139.324 159.314 139.445 158.28C140.053 152.926 141.025 135.403 128.086 134.551C115.208 133.699 96.9235 144.529 91.3349 147.997C89.9985 148.849 88.905 150.066 88.2368 151.526C86.4145 155.481 84.1669 164.303 90.6667 177.75C90.7274 177.75 91.6386 174.16 94.6759 174.586Z" fill="#4D4D4D"/>
<g opacity="0.5">
<path opacity="0.5" d="M175.468 340.505H250.124C250.792 338.01 250.974 335.333 250.549 332.595L215.317 96.8889C213.737 86.3022 203.896 79.001 193.327 80.583L128.754 90.257L143.212 310.205C144.305 327.241 158.398 340.505 175.468 340.505Z" fill="#676868"/>
</g>
<g opacity="0.5">
<path opacity="0.5" d="M378.418 340.505H303.762C303.094 338.01 302.912 335.333 303.337 332.595L338.569 96.8889C340.149 86.3022 349.99 79.001 360.559 80.583L425.193 90.257L410.735 310.205C409.581 327.241 395.488 340.505 378.418 340.505Z" fill="#676868"/>
</g>
<path d="M348.957 1H175.832C160.038 1 147.281 13.7771 147.281 29.5963V302.782C147.281 318.601 160.038 331.378 175.832 331.378H378.115C393.909 331.378 406.665 318.601 406.665 302.782V61.2347L348.957 1Z" fill="#E9CCFF" stroke="#62177C" stroke-width="2" stroke-miterlimit="10"/>
<path opacity="0.4" d="M348.957 32.9427C348.957 32.9427 342.882 78.5751 406.665 61.2348L348.957 32.9427Z" fill="#62177C"/>
<path d="M406.665 61.2347H377.204C361.592 61.2347 348.957 48.5794 348.957 32.9427V1" fill="#62177C"/>
<path d="M277.581 201.782H173.098C169.211 201.782 166.113 198.679 166.113 194.786C166.113 190.892 169.211 187.789 173.098 187.789H277.581C281.468 187.789 284.566 190.892 284.566 194.786C284.566 198.679 281.408 201.782 277.581 201.782Z" fill="#62177C"/>
<path d="M379.33 217.602H169.15C167.449 217.602 166.113 216.263 166.113 214.56C166.113 212.856 167.449 211.517 169.15 211.517H379.33C381.031 211.517 382.367 212.856 382.367 214.56C382.367 216.263 380.97 217.602 379.33 217.602Z" fill="#B65EE5"/>
<path d="M379.33 232.813H169.15C167.449 232.813 166.113 231.474 166.113 229.77C166.113 228.067 167.449 226.728 169.15 226.728H379.33C381.031 226.728 382.367 228.067 382.367 229.77C382.367 231.474 380.97 232.813 379.33 232.813Z" fill="#B65EE5"/>
<path d="M355.639 246.806H169.15C167.449 246.806 166.113 245.468 166.113 243.764C166.113 242.061 167.449 240.722 169.15 240.722H355.639C357.34 240.722 358.676 242.061 358.676 243.764C358.676 245.468 357.279 246.806 355.639 246.806Z" fill="#B65EE5"/>
<path opacity="0.4" d="M220.966 290.857L209.971 296.637C209.303 297.002 208.574 296.454 208.695 295.724L210.821 283.434C211.064 281.913 210.578 280.392 209.485 279.358L200.616 270.718C200.069 270.231 200.373 269.318 201.102 269.197L213.373 267.371C214.891 267.128 216.167 266.215 216.835 264.877L222.363 253.743C222.667 253.073 223.639 253.073 223.943 253.743L229.47 264.877C230.139 266.215 231.414 267.189 232.933 267.371L245.204 269.197C245.932 269.318 246.236 270.231 245.689 270.718L236.821 279.358C235.727 280.392 235.241 281.974 235.484 283.434L237.61 295.724C237.732 296.454 237.003 297.002 236.335 296.637L225.34 290.857C223.882 290.127 222.302 290.127 220.966 290.857Z" fill="#62177C"/>
<path d="M220.358 289.64L209.363 295.42C208.695 295.785 207.966 295.238 208.088 294.507L210.214 282.217C210.457 280.696 209.971 279.175 208.877 278.141L200.009 269.501C199.462 269.014 199.766 268.102 200.494 267.98L212.765 266.155C214.284 265.911 215.559 264.999 216.228 263.66L221.755 252.526C222.059 251.856 223.031 251.856 223.335 252.526L228.863 263.66C229.531 264.999 230.807 265.972 232.325 266.155L244.596 267.98C245.325 268.102 245.628 269.014 245.082 269.501L236.213 278.141C235.119 279.175 234.634 280.757 234.877 282.217L237.003 294.507C237.124 295.238 236.395 295.785 235.727 295.42L224.732 289.64C223.274 288.91 221.695 288.91 220.358 289.64Z" fill="#FFC660"/>
<path d="M208.817 276.62L200.009 268.102C199.583 268.406 199.523 269.014 199.948 269.44L208.817 278.08C209.546 278.81 210.032 279.723 210.153 280.696C210.396 279.175 209.91 277.715 208.817 276.62Z" fill="#FF9B22"/>
<path d="M235.606 293.96L224.611 288.18C223.274 287.45 221.695 287.45 220.358 288.18L209.363 293.96C208.938 294.203 208.452 294.021 208.209 293.656L208.088 294.447C207.966 295.177 208.695 295.724 209.363 295.359L220.358 289.579C221.695 288.849 223.274 288.849 224.611 289.579L235.606 295.359C236.274 295.724 237.003 295.177 236.881 294.447L236.76 293.656C236.517 294.021 236.031 294.203 235.606 293.96Z" fill="#FF9B22"/>
<path d="M244.9 268.102L236.092 276.62C234.998 277.654 234.512 279.175 234.755 280.696C234.877 279.723 235.363 278.81 236.092 278.08L244.96 269.44C245.446 269.014 245.325 268.406 244.9 268.102Z" fill="#FF9B22"/>
<path opacity="0.4" d="M326.663 290.857L315.668 296.637C315 297.002 314.271 296.454 314.393 295.724L316.519 283.434C316.762 281.913 316.276 280.392 315.182 279.358L306.313 270.718C305.767 270.231 306.07 269.318 306.799 269.197L319.07 267.371C320.589 267.128 321.864 266.215 322.533 264.877L328.06 253.743C328.364 253.073 329.336 253.073 329.64 253.743L335.168 264.877C335.836 266.215 337.111 267.189 338.63 267.371L350.901 269.197C351.63 269.318 351.933 270.231 351.387 270.718L342.518 279.358C341.424 280.392 340.938 281.974 341.181 283.434L343.308 295.724C343.429 296.454 342.7 297.002 342.032 296.637L331.037 290.857C329.579 290.127 328 290.127 326.663 290.857Z" fill="#62177C"/>
<path d="M326.299 289.64L315.304 295.42C314.636 295.785 313.907 295.238 314.028 294.507L316.154 282.217C316.397 280.696 315.911 279.175 314.818 278.141L305.949 269.501C305.402 269.014 305.706 268.102 306.435 267.98L318.706 266.155C320.224 265.911 321.5 264.999 322.168 263.66L327.696 252.526C328 251.856 328.972 251.856 329.275 252.526L334.803 263.66C335.471 264.999 336.747 265.972 338.266 266.155L350.536 267.98C351.265 268.102 351.569 269.014 351.022 269.501L342.153 278.141C341.06 279.175 340.574 280.757 340.817 282.217L342.943 294.507C343.064 295.238 342.336 295.785 341.667 295.42L330.672 289.64C329.215 288.91 327.635 288.91 326.299 289.64Z" fill="#FFD561"/>
<path d="M314.757 276.62L305.949 268.102C305.524 268.406 305.463 269.014 305.888 269.44L314.757 278.08C315.486 278.81 315.972 279.723 316.094 280.696C316.337 279.175 315.851 277.715 314.757 276.62Z" fill="#FF9B22"/>
<path d="M341.546 293.96L330.551 288.18C329.215 287.45 327.635 287.45 326.299 288.18L315.304 293.96C314.879 294.203 314.393 294.021 314.15 293.656L314.028 294.447C313.907 295.177 314.636 295.724 315.304 295.359L326.299 289.579C327.635 288.849 329.215 288.849 330.551 289.579L341.546 295.359C342.214 295.724 342.943 295.177 342.822 294.447L342.7 293.656C342.457 294.021 341.971 294.203 341.546 293.96Z" fill="#FF9B22"/>
<path d="M350.901 268.102L342.093 276.62C340.999 277.654 340.513 279.175 340.756 280.696C340.878 279.723 341.364 278.81 342.093 278.08L350.961 269.44C351.387 269.014 351.265 268.406 350.901 268.102Z" fill="#FF9B22"/>
<path opacity="0.4" d="M367.667 298.28L359.891 302.356C359.405 302.6 358.919 302.235 358.98 301.687L360.438 293.047C360.62 292.013 360.256 290.918 359.466 290.127L353.209 284.042C352.845 283.677 353.027 283.069 353.574 282.947L362.26 281.67C363.293 281.487 364.204 280.879 364.69 279.905L368.578 272.056C368.821 271.57 369.489 271.57 369.671 272.056L373.559 279.905C374.045 280.879 374.956 281.548 375.989 281.67L384.675 282.947C385.161 283.008 385.404 283.677 385.04 284.042L378.783 290.127C377.993 290.857 377.629 291.952 377.811 293.047L379.269 301.687C379.33 302.174 378.844 302.6 378.358 302.356L370.582 298.28C369.732 297.793 368.639 297.793 367.667 298.28Z" fill="#62177C"/>
<path d="M367.424 297.489L359.648 301.565C359.162 301.809 358.676 301.444 358.737 300.896L360.195 292.256C360.377 291.222 360.013 290.127 359.223 289.336L352.966 283.252C352.602 282.886 352.784 282.278 353.331 282.156L362.017 280.879C363.05 280.696 363.961 280.088 364.447 279.114L368.335 271.265C368.578 270.779 369.246 270.779 369.428 271.265L373.316 279.114C373.802 280.088 374.713 280.757 375.746 280.879L384.432 282.156C384.918 282.217 385.161 282.886 384.797 283.252L378.54 289.336C377.75 290.066 377.386 291.161 377.568 292.256L379.026 300.896C379.087 301.383 378.601 301.809 378.115 301.565L370.339 297.489C369.489 297.002 368.335 297.002 367.424 297.489Z" fill="#FFD561"/>
<path d="M359.284 288.362L353.088 282.339C352.784 282.582 352.723 283.008 353.027 283.312L359.284 289.397C359.831 289.883 360.134 290.553 360.256 291.222C360.377 290.188 360.013 289.092 359.284 288.362Z" fill="#FF9B22"/>
<path d="M378.176 300.592L370.4 296.515C369.428 296.029 368.335 296.029 367.363 296.515L359.587 300.592C359.284 300.774 358.919 300.653 358.798 300.348L358.676 300.896C358.616 301.383 359.102 301.809 359.587 301.565L367.363 297.489C368.335 297.002 369.428 297.002 370.4 297.489L378.176 301.565C378.662 301.809 379.148 301.444 379.087 300.896L379.026 300.348C378.844 300.592 378.479 300.714 378.176 300.592Z" fill="#FF9B22"/>
<path d="M384.736 282.339L378.54 288.362C377.751 289.092 377.447 290.188 377.568 291.222C377.69 290.553 377.994 289.883 378.54 289.397L384.797 283.312C385.101 283.008 385.04 282.521 384.736 282.339Z" fill="#FF9B22"/>
<path opacity="0.4" d="M180.874 298.28L173.098 302.356C172.612 302.6 172.127 302.235 172.187 301.687L173.645 293.047C173.827 292.013 173.463 290.918 172.673 290.127L166.416 284.042C166.052 283.677 166.234 283.069 166.781 282.947L175.468 281.67C176.5 281.487 177.411 280.879 177.897 279.905L181.785 272.056C182.028 271.57 182.696 271.57 182.878 272.056L186.766 279.905C187.252 280.879 188.163 281.548 189.196 281.67L197.883 282.947C198.369 283.008 198.612 283.677 198.247 284.042L191.99 290.127C191.201 290.857 190.836 291.952 191.018 293.047L192.476 301.687C192.537 302.174 192.051 302.6 191.565 302.356L183.79 298.28C182.939 297.793 181.785 297.793 180.874 298.28Z" fill="#62177C"/>
<path d="M180.449 297.489L172.673 301.565C172.187 301.809 171.701 301.444 171.762 300.896L173.22 292.256C173.402 291.222 173.038 290.127 172.248 289.336L165.991 283.252C165.627 282.886 165.809 282.278 166.356 282.156L175.042 280.879C176.075 280.696 176.986 280.088 177.472 279.114L181.36 271.265C181.603 270.779 182.271 270.779 182.453 271.265L186.341 279.114C186.827 280.088 187.738 280.757 188.771 280.879L197.457 282.156C197.943 282.217 198.186 282.886 197.822 283.252L191.565 289.336C190.775 290.066 190.411 291.161 190.593 292.256L192.051 300.896C192.112 301.383 191.626 301.809 191.14 301.565L183.364 297.489C182.514 297.002 181.421 297.002 180.449 297.489Z" fill="#FFC660"/>
<path d="M172.309 288.362L166.113 282.339C165.809 282.582 165.748 283.008 166.052 283.312L172.309 289.397C172.856 289.883 173.159 290.553 173.281 291.222C173.463 290.188 173.098 289.092 172.309 288.362Z" fill="#FF9B22"/>
<path d="M191.261 300.592L183.486 296.515C182.514 296.029 181.421 296.029 180.449 296.515L172.673 300.592C172.369 300.774 172.005 300.653 171.883 300.348L171.762 300.896C171.701 301.383 172.187 301.809 172.673 301.565L180.449 297.489C181.421 297.002 182.514 297.002 183.486 297.489L191.261 301.565C191.747 301.809 192.233 301.444 192.172 300.896L192.051 300.348C191.869 300.592 191.565 300.714 191.261 300.592Z" fill="#FF9B22"/>
<path d="M197.822 282.339L191.626 288.362C190.836 289.092 190.532 290.188 190.654 291.222C190.775 290.553 191.079 289.883 191.626 289.397L197.883 283.312C198.186 283.008 198.126 282.521 197.822 282.339Z" fill="#FF9B22"/>
<path d="M277.581 160.409C313.646 160.409 342.882 131.126 342.882 95.0027C342.882 58.8798 313.646 29.5963 277.581 29.5963C241.516 29.5963 212.279 58.8798 212.279 95.0027C212.279 131.126 241.516 160.409 277.581 160.409Z" fill="white"/>
<path opacity="0.4" d="M273.632 286.78L259.539 294.142C258.689 294.568 257.717 293.899 257.899 292.926L260.572 277.228C260.876 275.281 260.268 273.334 258.871 271.996L247.512 260.922C246.843 260.253 247.208 259.097 248.119 258.975L263.852 256.663C265.796 256.359 267.436 255.142 268.287 253.438L275.394 239.14C275.819 238.288 277.034 238.288 277.459 239.14L284.566 253.438C285.417 255.203 287.118 256.359 289.001 256.663L304.734 258.975C305.645 259.097 306.01 260.253 305.342 260.922L293.982 271.996C292.585 273.334 291.917 275.342 292.281 277.228L294.954 292.986C295.136 293.899 294.164 294.629 293.314 294.203L279.221 286.841C277.399 285.929 275.333 285.929 273.632 286.78Z" fill="#62177C"/>
<path d="M272.721 284.773L258.628 292.135C257.778 292.561 256.806 291.891 256.988 290.918L259.661 275.159C259.965 273.212 259.357 271.265 257.96 269.927L246.601 258.853C245.933 258.184 246.297 257.028 247.208 256.906L262.941 254.594C264.885 254.29 266.525 253.073 267.376 251.37L274.483 237.072C274.908 236.22 276.123 236.22 276.548 237.072L283.656 251.37C284.506 253.134 286.207 254.29 288.09 254.594L303.823 256.906C304.734 257.028 305.099 258.184 304.431 258.853L293.071 269.927C291.674 271.265 291.006 273.273 291.37 275.159L294.043 290.918C294.225 291.83 293.253 292.561 292.403 292.135L278.188 284.773C276.488 283.86 274.422 283.86 272.721 284.773Z" fill="#FFD561"/>
<path d="M257.899 268.162L246.601 257.211C246.054 257.637 245.993 258.427 246.479 258.914L257.839 269.988C258.75 270.9 259.357 272.117 259.539 273.334C259.965 271.448 259.297 269.501 257.899 268.162Z" fill="#FF9B22"/>
<path d="M292.281 290.37L278.188 282.947C276.487 282.035 274.422 282.035 272.721 282.947L258.628 290.309C258.081 290.614 257.474 290.37 257.17 289.944L256.988 290.979C256.806 291.891 257.778 292.621 258.628 292.195L272.721 284.833C274.422 283.921 276.487 283.921 278.188 284.833L292.281 292.195C293.132 292.621 294.104 291.952 293.921 290.979L293.739 289.944C293.496 290.431 292.889 290.614 292.281 290.37Z" fill="#FF9B22"/>
<path d="M304.248 257.211L292.949 268.162C291.552 269.501 290.945 271.448 291.249 273.334C291.431 272.056 292.038 270.9 292.949 269.988L304.309 258.914C304.916 258.367 304.795 257.576 304.248 257.211Z" fill="#FF9B22"/>
<path d="M279.221 160.409C280.011 160.409 280.74 160.348 281.529 160.287L280.497 159.801L279.221 160.409Z" fill="#0D5F99"/>
<path d="M280.496 133.821C247.694 133.821 245.446 151.283 245.446 151.283L245.811 152.195C255.226 157.428 266.039 160.409 277.581 160.409C278.127 160.409 278.674 160.409 279.221 160.409L280.496 159.801L281.529 160.287C293.8 159.557 305.22 155.42 314.757 148.788C312.692 143.921 305.463 133.821 280.496 133.821Z" fill="#0D5F99"/>
<path d="M270.109 126.519V140.757C270.109 140.757 279.828 148.362 287.422 140.757V125.059L270.109 126.519Z" fill="#FFB5A1"/>
<path d="M299.753 87.5798L297.019 76.5672L276.791 70.057L256.867 77.5407L254.68 88.675L258.81 92.3864C258.81 92.3864 250.002 119.218 278.31 130.839C306.01 117.819 295.926 91.4738 295.926 91.4738L299.753 87.5798Z" fill="#FFB5A1"/>
<path d="M260.086 114.959C260.086 114.959 252.797 94.5768 273.025 81.313C273.025 81.313 280.922 83.9293 289.912 79.9136C289.912 79.9136 292.099 90.3178 296.777 95.0027C296.777 95.0027 297.991 104.129 296.777 108.997C296.777 108.997 303.155 118.306 303.155 131.813C303.155 131.813 311.781 85.0853 297.384 62.1474C297.384 62.1474 289.305 51.3173 270.352 53.6294C270.352 53.6294 263.063 45.8414 254.558 52.23C246.054 58.6185 250.731 67.0149 250.731 67.0149C250.731 67.0149 236.881 111.126 260.086 114.959Z" fill="#DD9A2F"/>
</svg>
