<svg width="512" height="512" viewBox="0 0 512 512" fill="none" xmlns="http://www.w3.org/2000/svg">
<path d="M512 229C512 247 512 265 512 283C511.7 282.8 511.4 282.5 511.3 282.6C511 282.7 510.8 283.1 510.7 283.4C509.4 291.6 508.4 299.9 506.7 308C484.1 416 396 496.7 286.3 510.2C285.2 510.3 282.9 509.3 283 512C265 512 247 512 229 512C229.2 511.7 229.5 511.4 229.4 511.3C229.3 511 228.9 510.8 228.6 510.7C220.4 509.4 212.1 508.4 204 506.7C96.5 484.6 15.2 395.8 1.8 286.3C1.7 285.2 2.7 282.9 0 283C0 264.7 0 246.3 0 228C0.3 228.2 0.500006 229 1.10001 228.3C1.20001 228.2 1.39999 228.1 1.39999 227.9C2.69999 219.9 3.7 211.7 5.3 203.8C28.3 95.7 116.1 15.3 225.7 1.8C226.8 1.7 229.1 2.7 229 0C247 0 265 0 283 0C282.8 0.3 282.7 0.5 282.6 0.8C282.6 0.8 282.8 1.1 283 1.1C289.7 2.2 296.5 3 303.2 4.3C413.8 25.6 496.7 114.3 510.3 225.8C510.3 226.8 509.3 229.1 512 229ZM391.1 166.1C389.1 165.2 387.7 166.8 386.1 167.4C378.8 170.3 371.4 172.7 362 173.3C373 164.4 380.8 154.9 384.6 141.3C374.1 147 364.5 151.4 354.2 154.4C350.6 155.4 348.3 155.1 345.4 152.4C320.6 128.6 283.6 132.3 263.6 160.2C254 173.6 251.1 188.6 252 204.7C252.4 211.5 252.3 211.5 245.7 210.8C209 206.8 177.9 191.3 151.8 165.5C146.5 160.3 141.7 154.5 136.6 148.4C128.9 162.4 127.8 176.8 130.4 191.6C133 206.5 140.5 218.8 152.9 229C143.3 229.5 136 225.6 128.5 222.5C126.8 247.9 142.4 269.7 171.6 282.9C163.7 285.3 156 285.4 147.7 284.3C151.3 296.3 157.5 305.8 166.7 313.5C175.8 321.2 186.5 324.9 199.5 325.7C174.9 345.1 148.3 353.3 118.4 350.6C118.8 352 120 352.4 120.9 353C177.8 391.2 257.1 384.8 306.9 337.3C344.7 301.3 362 256.1 362.8 204.3C362.9 200.1 364 197.3 367.2 194.5C376.6 186.3 385.3 177.4 391.1 166.1C391.2 165.9 391.4 165.7 391.5 165.5C391.4 165.5 391.2 165.5 391.1 165.5C391 165.6 391.1 165.8 391.1 166.1Z" fill="#1CB6EA"/>
</svg>
