<svg width="487" height="403" viewBox="0 0 487 403" fill="none" xmlns="http://www.w3.org/2000/svg">
<path d="M258.034 129.136H15.9658C7.66565 129.136 1 122.471 1 114.172V15.9641C1 7.6651 7.66565 1 15.9658 1H258.087C266.332 1 273 7.66294 273 15.9641V114.225C273 122.469 266.337 129.136 258.034 129.136Z" fill="#E9CCFF" stroke="#62177C" stroke-width="2"/>
<path d="M56.2754 102.95C77.1991 102.95 94.1612 85.9897 94.1612 65.0682C94.1612 44.1466 77.1991 27.1864 56.2754 27.1864C35.3517 27.1864 18.3896 44.1466 18.3896 65.0682C18.3896 85.9897 35.3517 102.95 56.2754 102.95Z" fill="white"/>
<path d="M57.2241 102.95C57.6984 102.95 58.1199 102.897 58.5414 102.897L57.9618 102.634L57.2241 102.95Z" fill="#0D5F99"/>
<path d="M57.9618 87.5654C38.9399 87.5654 37.6226 97.6812 37.6226 97.6812L37.8333 98.2081C43.2606 101.264 49.5837 103.003 56.2756 103.003C56.5918 103.003 56.9079 103.003 57.2241 103.003L57.9618 102.686L58.5414 102.95C65.6549 102.528 72.2941 100.105 77.8268 96.2587C76.6676 93.4136 72.4522 87.5654 57.9618 87.5654Z" fill="#0D5F99"/>
<path d="M51.9546 83.2978V91.5169C51.9546 91.5169 57.5927 95.9426 62.0188 91.5169V82.4548L51.9546 83.2978Z" fill="#FFB5A1"/>
<path d="M69.1325 60.8005L67.5517 54.4254L55.8013 50.6847L44.2617 55.005L42.9971 61.4854L45.3682 63.6456C45.3682 63.6456 40.2571 79.1882 56.6971 85.9321C72.7682 78.3979 66.9194 63.1187 66.9194 63.1187L69.1325 60.8005Z" fill="#FFB5A1"/>
<path d="M46.1587 76.6066C46.1587 76.6066 41.9433 64.8047 53.641 57.1125C53.641 57.1125 58.2253 58.5877 63.4418 56.3222C63.4418 56.3222 64.7064 62.3811 67.3937 65.0682C67.3937 65.0682 68.0787 70.3368 67.3937 73.1819C67.3937 73.1819 71.0822 78.556 71.0822 86.4063C71.0822 86.4063 76.0879 59.378 67.7099 46.0482C67.7099 46.0482 63.0203 39.7785 52.0076 41.0957C52.0076 41.0957 47.7922 36.6173 42.8391 40.3054C37.886 43.9935 40.626 48.8406 40.626 48.8406C40.626 48.8406 32.6695 74.3937 46.1587 76.6066Z" fill="#DD9A2F"/>
<path d="M176.256 44.8891H109.231C105.859 44.8891 103.171 42.2021 103.171 38.8302C103.171 35.4582 105.859 32.7712 109.231 32.7712H176.256C179.628 32.7712 182.315 35.4582 182.315 38.8302C182.315 42.1494 179.628 44.8891 176.256 44.8891Z" fill="#62177C"/>
<path d="M245.019 58.5877H105.806C104.331 58.5877 103.171 57.4286 103.171 55.9533C103.171 54.4781 104.331 53.319 105.806 53.319H245.019C246.494 53.319 247.654 54.4781 247.654 55.9533C247.654 57.3759 246.494 58.5877 245.019 58.5877Z" fill="#B65EE5"/>
<path d="M112.919 101.001L107.756 103.688C107.439 103.846 107.07 103.582 107.176 103.266L108.177 97.5232C108.282 96.8383 108.072 96.1007 107.545 95.5738L103.382 91.5169C103.119 91.2535 103.277 90.832 103.593 90.7793L109.389 89.9363C110.074 89.8309 110.706 89.4094 111.022 88.7772L113.604 83.5612C113.762 83.2451 114.184 83.2451 114.342 83.5612L116.924 88.7772C117.24 89.4094 117.872 89.8309 118.557 89.9363L124.354 90.7793C124.67 90.832 124.828 91.2535 124.564 91.5169L120.402 95.5738C119.875 96.048 119.664 96.7856 119.769 97.5232L120.771 103.266C120.823 103.582 120.454 103.846 120.191 103.688L115.027 101.001C114.289 100.632 113.552 100.632 112.919 101.001Z" fill="#FFC660"/>
<path d="M107.492 94.8889L103.382 90.8847C103.171 91.0427 103.171 91.3062 103.329 91.5169L107.492 95.5738C107.861 95.8899 108.072 96.3641 108.124 96.7856C108.23 96.1007 108.019 95.363 107.492 94.8889Z" fill="#FF9B22"/>
<path d="M120.086 103.003L114.922 100.316C114.289 99.9995 113.552 99.9995 112.919 100.316L107.756 103.003C107.545 103.108 107.334 103.003 107.229 102.845L107.176 103.213C107.123 103.529 107.492 103.793 107.756 103.635L112.919 100.948C113.552 100.632 114.289 100.632 114.922 100.948L120.086 103.635C120.402 103.793 120.771 103.529 120.665 103.213L120.613 102.845C120.507 103.055 120.296 103.108 120.086 103.003Z" fill="#FF9B22"/>
<path d="M124.459 90.8847L120.349 94.8889C119.822 95.363 119.611 96.1007 119.717 96.7856C119.769 96.3114 119.98 95.8899 120.349 95.5738L124.512 91.5169C124.723 91.3062 124.67 91.0427 124.459 90.8847Z" fill="#FF9B22"/>
<path d="M138.001 101.001L132.837 103.688C132.521 103.846 132.152 103.582 132.257 103.266L133.259 97.5232C133.364 96.8383 133.153 96.1007 132.626 95.5738L128.464 91.5169C128.2 91.2535 128.358 90.832 128.674 90.7793L134.471 89.9363C135.156 89.8309 135.788 89.4094 136.104 88.7772L138.686 83.5612C138.844 83.2451 139.266 83.2451 139.424 83.5612L142.006 88.7772C142.322 89.4094 142.954 89.8309 143.639 89.9363L149.435 90.7793C149.751 90.832 149.909 91.2535 149.646 91.5169L145.483 95.5738C144.956 96.048 144.746 96.7856 144.851 97.5232L145.852 103.266C145.905 103.582 145.536 103.846 145.272 103.688L140.109 101.001C139.371 100.632 138.633 100.632 138.001 101.001Z" fill="#FFC660"/>
<path d="M132.574 94.8889L128.464 90.8847C128.253 91.0427 128.253 91.3062 128.411 91.5169L132.574 95.5738C132.943 95.8899 133.153 96.3641 133.206 96.7856C133.311 96.1007 133.101 95.363 132.574 94.8889Z" fill="#FF9B22"/>
<path d="M145.167 103.003L140.003 100.316C139.371 99.9995 138.633 99.9995 138.001 100.316L132.837 103.003C132.626 103.108 132.416 103.003 132.31 102.845L132.258 103.213C132.205 103.529 132.574 103.793 132.837 103.635L138.001 100.948C138.633 100.632 139.371 100.632 140.003 100.948L145.167 103.635C145.483 103.793 145.852 103.529 145.747 103.213L145.694 102.845C145.641 103.055 145.378 103.108 145.167 103.003Z" fill="#FF9B22"/>
<path d="M149.593 90.8847L145.483 94.8889C144.956 95.363 144.746 96.1007 144.851 96.7856C144.904 96.3114 145.115 95.8899 145.483 95.5738L149.646 91.5169C149.804 91.3062 149.751 91.0427 149.593 90.8847Z" fill="#FF9B22"/>
<path d="M163.082 101.001L157.919 103.688C157.602 103.846 157.234 103.582 157.339 103.266L158.34 97.5232C158.446 96.8383 158.235 96.1007 157.708 95.5738L153.545 91.5169C153.282 91.2535 153.44 90.832 153.756 90.7793L159.552 89.9363C160.237 89.8309 160.869 89.4094 161.186 88.7772L163.767 83.5612C163.926 83.2451 164.347 83.2451 164.505 83.5612L167.087 88.7772C167.403 89.4094 168.036 89.8309 168.721 89.9363L174.517 90.7793C174.833 90.832 174.991 91.2535 174.727 91.5169L170.565 95.5738C170.038 96.048 169.827 96.7856 169.932 97.5232L170.934 103.266C170.986 103.582 170.617 103.846 170.354 103.688L165.19 101.001C164.452 100.632 163.715 100.632 163.082 101.001Z" fill="#FFC660"/>
<path d="M157.655 94.8889L153.545 90.8847C153.334 91.0427 153.334 91.3062 153.493 91.5169L157.655 95.5738C158.024 95.8899 158.235 96.3641 158.288 96.7856C158.393 96.1007 158.129 95.363 157.655 94.8889Z" fill="#FF9B22"/>
<path d="M170.249 103.003L165.085 100.316C164.453 99.9995 163.715 99.9995 163.083 100.316L157.919 103.003C157.708 103.108 157.497 103.003 157.392 102.845L157.339 103.213C157.286 103.529 157.655 103.793 157.919 103.635L163.083 100.948C163.715 100.632 164.453 100.632 165.085 100.948L170.249 103.635C170.565 103.793 170.934 103.529 170.828 103.213L170.776 102.845C170.67 103.055 170.459 103.108 170.249 103.003Z" fill="#FF9B22"/>
<path d="M174.622 90.8847L170.512 94.8889C169.985 95.363 169.774 96.1007 169.88 96.7856C169.933 96.3114 170.143 95.8899 170.512 95.5738L174.675 91.5169C174.886 91.3062 174.833 91.0427 174.622 90.8847Z" fill="#FF9B22"/>
<path d="M188.164 101.001L183.001 103.688C182.684 103.846 182.316 103.582 182.421 103.266L183.369 97.4705C183.475 96.7856 183.264 96.048 182.737 95.5211L178.574 91.4642C178.311 91.2008 178.469 90.7793 178.785 90.7266L184.581 89.8836C185.266 89.7782 185.899 89.3567 186.215 88.7245L188.797 83.5085C188.955 83.1924 189.376 83.1924 189.534 83.5085L192.116 88.7245C192.433 89.3567 193.065 89.7782 193.75 89.8836L199.546 90.7266C199.862 90.7793 200.02 91.2008 199.757 91.4642L195.594 95.5211C195.067 95.9953 194.856 96.7329 194.962 97.4705L195.963 103.213C196.016 103.529 195.647 103.793 195.383 103.635L190.219 100.948C189.534 100.632 188.797 100.632 188.164 101.001Z" fill="#FFC660"/>
<path d="M182.737 94.8888L178.627 90.8846C178.417 91.0427 178.417 91.3061 178.575 91.5169L182.737 95.5738C183.106 95.8899 183.317 96.3641 183.37 96.7856C183.475 96.1006 183.264 95.363 182.737 94.8888Z" fill="#FF9B22"/>
<path d="M195.331 103.003L190.167 100.316C189.535 99.9995 188.797 99.9995 188.165 100.316L183.001 103.003C182.79 103.108 182.579 103.003 182.474 102.845L182.421 103.213C182.368 103.529 182.737 103.793 183.001 103.635L188.165 100.948C188.797 100.632 189.535 100.632 190.167 100.948L195.331 103.635C195.647 103.793 196.016 103.529 195.91 103.213L195.858 102.845C195.752 103.055 195.541 103.108 195.331 103.003Z" fill="#FF9B22"/>
<path d="M199.704 90.8846L195.594 94.8888C195.067 95.363 194.857 96.1006 194.962 96.7856C195.015 96.3114 195.225 95.8899 195.594 95.5738L199.757 91.5169C199.968 91.3061 199.915 91.0427 199.704 90.8846Z" fill="#FF9B22"/>
<path d="M213.193 100.737L208.029 103.424C207.713 103.582 207.344 103.319 207.45 103.003L208.451 97.2598C208.556 96.5748 208.346 95.8372 207.819 95.3103L203.656 91.2535C203.393 90.99 203.551 90.5685 203.867 90.5158L209.663 89.6729C210.348 89.5675 210.98 89.146 211.296 88.5137L213.878 83.2978C214.036 82.9816 214.458 82.9816 214.616 83.2978L217.198 88.5137C217.514 89.146 218.146 89.5675 218.831 89.6729L224.628 90.5158C224.944 90.5685 225.102 90.99 224.838 91.2535L220.676 95.3103C220.149 95.7845 219.938 96.5221 220.043 97.2598L221.044 103.003C221.097 103.319 220.728 103.582 220.465 103.424L215.301 100.737C214.616 100.368 213.826 100.368 213.193 100.737Z" fill="#FFC660"/>
<path d="M207.819 94.6254L203.709 90.6212C203.498 90.7793 203.498 91.0427 203.656 91.2535L207.819 95.3103C208.188 95.6265 208.398 96.1006 208.451 96.5221C208.557 95.8372 208.293 95.1523 207.819 94.6254Z" fill="#FF9B22"/>
<path d="M220.412 102.739L215.248 100.052C214.616 99.736 213.878 99.736 213.246 100.052L208.082 102.739C207.871 102.845 207.661 102.739 207.555 102.581L207.503 102.95C207.45 103.266 207.819 103.529 208.082 103.371L213.246 100.684C213.878 100.368 214.616 100.368 215.248 100.684L220.412 103.371C220.728 103.529 221.097 103.266 220.992 102.95L220.939 102.581C220.834 102.792 220.623 102.845 220.412 102.739Z" fill="#FF9B22"/>
<path d="M224.786 90.6212L220.676 94.6254C220.149 95.0996 219.938 95.8372 220.043 96.5221C220.096 96.048 220.307 95.6265 220.676 95.3103L224.838 91.2535C224.997 91.0427 224.997 90.7793 224.786 90.6212Z" fill="#FF9B22"/>
<path d="M250.058 402.227H28.6977C22.2692 402.227 17 397.011 17 390.531V297.696C17 291.269 22.2165 286 28.6977 286H250.058C256.487 286 261.756 291.216 261.756 297.696V390.583C261.703 397.011 256.487 402.227 250.058 402.227Z" fill="#E4E4E4"/>
<path d="M47.477 360.834C47.6917 360.753 47.9506 360.703 48.1726 360.659C54.4167 359.402 60.7758 358.929 66.0984 358.851C71.4065 358.699 77.7921 358.952 84.0933 359.952C84.3297 359.983 84.5734 360.05 84.8171 360.118C85.9549 360.242 89.4038 360.992 92.8574 365.894C96.3877 361.359 98.8059 355.848 99.6521 349.759C102.236 331.138 89.2767 313.938 70.682 311.338C52.0872 308.739 34.9201 321.708 32.3358 340.328C30.9564 350.175 33.9547 359.628 39.7941 366.719C43.0671 361.849 46.397 361.006 47.477 360.834Z" fill="white"/>
<path d="M84.7876 360.163C88.2285 361.068 90.6319 364.329 90.4171 367.948C90.3938 368.222 90.3704 368.496 90.3471 368.769C91.2084 367.87 92.0551 366.897 92.8207 365.902C89.3744 361.036 85.9182 360.249 84.7876 360.163Z" fill="#4C4C4C"/>
<path d="M42.1729 368.87C41.8111 365.248 44.0724 361.883 47.4844 360.871C46.3972 361.006 43.0303 361.856 39.7646 366.763C40.522 367.692 41.3462 368.57 42.2074 369.44C42.201 369.211 42.1648 369.025 42.1729 368.87Z" fill="#4C4C4C"/>
<path d="M84.3959 360.124C84.3959 360.124 84.5511 360.132 84.7803 360.126C84.5366 360.058 84.3002 360.027 84.0566 359.959C77.7924 358.952 71.4068 358.699 66.0617 358.858C60.7319 358.899 54.38 359.409 48.1358 360.667C47.9139 360.71 47.655 360.761 47.4402 360.841C47.6622 360.798 47.8174 360.806 47.8174 360.806L44.7326 364.87L45.2566 372.076C49.7734 375.54 55.1964 377.942 61.2322 378.764C70.9469 380.136 80.2878 377.234 87.3491 371.509L87.5874 364.077L84.3959 360.124Z" fill="#4C4C4C"/>
<path d="M84.7877 360.163C84.5513 360.132 84.4033 360.161 84.4033 360.161L87.6318 364.107L87.3935 371.539C88.4172 370.685 89.4337 369.794 90.3545 368.807C90.3778 368.533 90.4011 368.259 90.4244 367.985C90.632 364.329 88.2656 361.06 84.7877 360.163Z" fill="#4C4C4C"/>
<path d="M47.8543 360.799C47.8543 360.799 47.7361 360.783 47.4771 360.834C44.0724 361.883 41.8038 365.211 42.1656 368.833C42.2018 369.018 42.1937 369.174 42.2299 369.359C43.1868 370.326 44.2402 371.197 45.3233 372.024L44.7992 364.818L47.8543 360.799Z" fill="#4C4C4C"/>
<path d="M74.3201 358.476C71.8781 353.837 70.5152 347.449 70.5152 347.449L66.649 347.512L62.7827 347.575C62.7827 347.575 61.6615 354.025 59.3945 358.737C59.2305 359.077 59.1548 359.476 59.1902 359.854C59.3156 361.676 60.2241 367.114 66.4158 371.289C66.8581 371.588 67.4274 371.553 67.8279 371.244C73.8341 366.802 74.5371 361.357 74.6039 359.536C74.6127 359.188 74.5034 358.825 74.3201 358.476Z" fill="#EAEAEA"/>
<path d="M66.9998 360.713C66.9998 360.713 77.9482 358.767 77.6528 342.901L77.5307 336.771L71.6004 330.198L66.3591 330.299L66.9998 360.713Z" fill="#EAEAEA"/>
<path d="M66.9628 360.721C66.9628 360.721 55.9478 359.179 55.6524 343.313L55.5303 337.183L61.1917 330.385L66.433 330.284L66.9628 360.721Z" fill="#EAEAEA"/>
<path d="M61.0448 323.144C61.3737 322.272 62.1522 321.735 63.0174 321.643C66.87 321.314 78.9184 321.461 79.5846 335.293C80.1495 346.837 77.7861 348.106 76.8534 346.673C76.4127 345.99 76.1868 345.226 76.0718 344.441C75.7277 341.893 74.5917 336.076 72.6786 335.719C70.5292 335.331 67.2652 336.314 65.7445 339.342C65.6922 339.468 65.5225 339.386 65.5378 339.267C65.8233 338.173 66.8897 335.965 71.2964 333.95C71.2964 333.95 58.6692 330.839 57.6153 344.122C57.053 351.271 55.3676 349.523 54.4228 347.438C53.8221 346.132 53.4813 342.814 53.3615 341.415C52.9668 336.838 52.6609 325.243 60.46 328.605C60.4898 328.56 60.1851 325.427 61.0448 323.144Z" fill="#4D4D4D"/>
<path d="M77.8356 346.981L76.832 346.562C76.7475 347.309 76.2682 348.787 75.8935 350.014C75.5042 351.167 74.6872 352.096 73.6136 352.498C71.4738 353.339 68.6384 354.355 66.7238 354.382C64.8091 354.41 61.9448 353.508 59.834 352.728C58.8007 352.353 57.9837 351.512 57.5447 350.444C57.252 349.732 56.9818 348.939 56.903 348.339L56.0418 349.238L56.7341 351.602C56.7341 351.602 59.134 362.711 67.0146 362.557C74.592 362.423 76.7128 352.047 76.8712 351.285L77.8356 346.981Z" fill="#4D4D4D"/>
<path d="M173.635 338.012H113.776C110.773 338.012 108.349 335.589 108.349 332.586C108.349 329.582 110.773 327.159 113.776 327.159H173.635C176.638 327.159 179.062 329.582 179.062 332.586C179.009 335.589 176.586 338.012 173.635 338.012Z" fill="#B0BEBE"/>
<path d="M235.021 350.236H110.72C109.403 350.236 108.349 349.182 108.349 347.865C108.349 346.548 109.403 345.494 110.72 345.494H235.021C236.339 345.494 237.393 346.548 237.393 347.865C237.393 349.182 236.339 350.236 235.021 350.236Z" fill="#C9D3D4"/>
<path d="M235.021 361.985H110.72C109.403 361.985 108.349 360.931 108.349 359.614C108.349 358.297 109.403 357.243 110.72 357.243H235.021C236.339 357.243 237.393 358.297 237.393 359.614C237.393 360.931 236.339 361.985 235.021 361.985Z" fill="#C9D3D4"/>
<path d="M249.709 266.068H28.3486C21.9201 266.068 16.6509 260.852 16.6509 254.372V161.538C16.6509 155.11 21.8674 149.841 28.3486 149.841H249.709C256.137 149.841 261.407 155.057 261.407 161.538V254.424C261.354 260.852 256.137 266.068 249.709 266.068Z" fill="#E4E4E4"/>
<path d="M173.286 201.853H113.427C110.424 201.853 108 199.43 108 196.427C108 193.424 110.424 191 113.427 191H173.286C176.289 191 178.713 193.424 178.713 196.427C178.66 199.43 176.237 201.853 173.286 201.853Z" fill="#B0BEBE"/>
<path d="M234.672 214.077H110.371C109.054 214.077 108 213.023 108 211.706C108 210.389 109.054 209.335 110.371 209.335H234.672C235.99 209.335 237.043 210.389 237.043 211.706C237.043 213.023 235.99 214.077 234.672 214.077Z" fill="#C9D3D4"/>
<path d="M234.672 225.826H110.371C109.054 225.826 108 224.772 108 223.455C108 222.138 109.054 221.084 110.371 221.084H234.672C235.99 221.084 237.043 222.138 237.043 223.455C237.043 224.772 235.99 225.826 234.672 225.826Z" fill="#C9D3D4"/>
<path d="M101 208.055C101 189.272 85.7896 174 67.0001 174C48.2105 174 33 189.235 33 208.055C33 220.302 39.4496 231.056 49.1426 237.031C49.8509 235.687 54.0263 229.04 68.3794 229.75L75.2018 229.712C75.2018 229.712 82.2852 229.824 86.9825 235.537C95.4826 229.376 101 219.369 101 208.055Z" fill="white"/>
<path d="M75.2389 229.712L68.4166 229.75C54.0635 229.04 49.888 235.649 49.1797 237.031C54.3617 240.242 60.4758 242.109 66.9999 242.109C74.4933 242.109 81.4275 239.682 87.0197 235.575C82.3223 229.824 75.2389 229.712 75.2389 229.712Z" fill="#4C4C4C"/>
<path d="M80.1743 198.197C80.1743 198.197 83.296 210.052 77.3995 224.489C77.3995 224.489 71.3874 226.022 62.2921 223.778C59.2474 223.03 56.7038 220.973 55.355 218.243C54.6612 216.822 54.0446 215.326 54.0446 214.391C54.0446 214.391 51 214.578 51 209.08V205.901L52.9655 202.273L59.9026 199.319L69.5375 198.646L77.7464 197L80.1743 198.197Z" fill="#EAEAEA"/>
<path d="M54.1554 208.025C54.1554 208.025 53.7802 203.314 56.2569 203.314C58.6962 203.314 65.9763 200.579 72.0932 200.579C76.3712 200.579 79.3358 199.744 80.7618 199.212C81.3247 198.984 81.7375 198.49 81.8126 197.844C82.1878 194.502 82.7883 183.561 74.7951 183.03C66.8394 182.498 55.5439 189.259 52.0915 191.425C51.2659 191.956 50.5904 192.716 50.1776 193.628C49.0518 196.097 47.6633 201.605 51.6787 210C51.7162 210 52.2791 207.759 54.1554 208.025Z" fill="#4D4D4D"/>
<path d="M321.434 277.019C324.736 284.458 328.982 291.431 333.098 298.55C342.688 314.93 352.751 331.078 363.621 346.767C374.635 362.588 385.65 378.408 399.73 391.989C402.426 394.546 405.196 397.167 408.735 398.641C413.27 400.615 415.616 399.175 416.333 394.431C417.246 388.152 416.015 381.919 414.654 375.831C409.995 354.551 402.4 334.05 394.326 313.644C386.812 294.661 378.485 275.999 369.474 257.511C369.162 256.835 368.573 256.175 368.122 255.506C353.455 262.168 338.716 268.765 324.049 275.427C323.315 275.95 322.153 276.219 321.434 277.019Z" fill="#62177C"/>
<path d="M321.697 195.881C321.675 195.467 321.711 194.842 321.682 194.29C321.49 186.755 321.232 179.293 321.113 171.824C321.032 170.305 320.494 169.296 319.404 168.315C305.528 155.969 291.652 143.623 277.776 131.277C277.194 130.754 276.082 129.36 275.712 130.21C275.022 131.562 272.617 130.582 272.901 133.336C274.951 151.085 276.521 168.93 278.229 186.767C278.375 188.212 278.92 189.36 280.076 190.268C285.738 195.228 291.4 200.188 296.932 205.294C298.385 206.601 299.505 206.818 301.19 205.968C307.401 203.008 313.692 200.251 319.983 197.495C320.651 197.044 321.472 196.862 321.697 195.881ZM298.688 166.646C302.22 167.981 304.147 171.686 302.942 175.072C301.672 178.531 297.749 180.262 294.072 178.796C290.468 177.396 288.613 173.756 289.956 170.362C291.219 166.765 294.807 165.26 298.688 166.646Z" fill="#8FA3BB"/>
<path d="M350.583 223.697C346.213 215.692 340.971 208.217 333.274 202.742C329.248 199.91 324.648 199.324 320.246 201.149C315.233 203.215 310.366 205.411 305.506 207.746C300.174 210.313 298.135 214.92 298.5 220.508C298.998 228.58 301.551 236.266 305.057 243.625C311.486 240.861 317.988 238.163 324.264 235.13C332.03 231.465 340.246 228.468 347.706 224.265C348.651 223.799 349.522 223.268 350.583 223.697Z" fill="#62177C"/>
<path d="M321.434 277.019C322.218 276.147 323.242 275.885 324.259 275.485C338.926 268.823 353.666 262.226 368.333 255.564C365.045 248.402 361.758 241.239 357.12 234.702C356.313 235.16 355.442 235.69 354.563 236.083C339.896 242.745 325.222 249.269 310.555 255.931C313.777 263.166 317.137 270.394 321.434 277.019Z" fill="#D585F0"/>
<path d="M310.49 256.004C325.157 249.342 339.831 242.818 354.498 236.156C355.377 235.763 356.249 235.232 357.055 234.774C355.593 230.699 353.324 227.081 350.518 223.769C349.457 223.341 348.513 223.807 347.641 224.337C340.181 228.54 331.964 231.537 324.199 235.203C317.85 238.17 311.348 240.868 304.992 243.698C306.323 247.918 308.272 252.037 310.49 256.004Z" fill="#ECB6FF"/>
</svg>
